<svg width="105" height="47" viewBox="0 0 105 47" fill="none" xmlns="http://www.w3.org/2000/svg">
<g clip-path="url(#clip0_163_32451)">
<mask id="mask0_163_32451" style="mask-type:luminance" maskUnits="userSpaceOnUse" x="0" y="0" width="38" height="47">
<path d="M37.5988 0.562805H0V46.4295H37.5988V0.562805Z" fill="white"/>
</mask>
<g mask="url(#mask0_163_32451)">
<path fill-rule="evenodd" clip-rule="evenodd" d="M19.7044 30.845L19.1561 31.7561C17.6162 30.833 16.7415 30.833 15.2016 31.7561L14.6533 30.845C16.5318 29.7204 17.8218 29.7204 19.7004 30.845H19.7044Z" fill="#0E1235"/>
<path fill-rule="evenodd" clip-rule="evenodd" d="M8.84845 27.5999C12.0734 27.5999 14.6896 30.2121 14.6896 33.4411C14.6896 36.6701 12.0774 39.2823 8.84845 39.2823C8.73154 39.2823 8.6227 39.2823 8.5058 39.2742C11.5735 39.0968 14.0043 36.5532 14.0043 33.4411C14.0043 30.329 11.5735 27.7894 8.5058 27.612C8.61867 27.6039 8.73154 27.6039 8.84845 27.6039V27.5999Z" fill="#ED793D"/>
<path fill-rule="evenodd" clip-rule="evenodd" d="M8.84819 26.6122C12.6173 26.6122 15.673 29.6679 15.673 33.437C15.673 37.2062 12.6173 40.2618 8.84819 40.2618C5.07904 40.2618 2.02341 37.2062 2.02341 33.437C2.02341 29.6679 5.07904 26.6122 8.84819 26.6122ZM8.84819 27.5958C12.0731 27.5958 14.6894 30.2081 14.6894 33.437C14.6894 36.666 12.0772 39.2782 8.84819 39.2782C5.61921 39.2782 3.00701 36.666 3.00701 33.437C3.00701 30.2081 5.61921 27.5958 8.84819 27.5958Z" fill="#0E1235"/>
<path fill-rule="evenodd" clip-rule="evenodd" d="M25.5092 26.6122C29.2784 26.6122 32.334 29.6679 32.334 33.437C32.334 37.2062 29.2784 40.2618 25.5092 40.2618C21.7401 40.2618 18.6844 37.2062 18.6844 33.437C18.6844 29.6679 21.7401 26.6122 25.5092 26.6122ZM25.5092 27.5958C28.7342 27.5958 31.3504 30.2081 31.3504 33.437C31.3504 36.666 28.7382 39.2782 25.5092 39.2782C22.2803 39.2782 19.6681 36.666 19.6681 33.437C19.6681 30.2081 22.2803 27.5958 25.5092 27.5958Z" fill="#0E1235"/>
<path fill-rule="evenodd" clip-rule="evenodd" d="M25.5093 27.5999C28.7342 27.5999 31.3504 30.2121 31.3504 33.4411C31.3504 36.6701 28.7382 39.2823 25.5093 39.2823C25.3924 39.2823 25.2835 39.2823 25.1666 39.2742C28.2343 39.0968 30.6651 36.5532 30.6651 33.4411C30.6651 30.329 28.2343 27.7894 25.1666 27.612C25.2795 27.6039 25.3924 27.6039 25.5093 27.6039V27.5999Z" fill="#ED793D"/>
<path fill-rule="evenodd" clip-rule="evenodd" d="M2.78147 30.7926C2.53557 31.3529 2.39448 31.9818 2.39448 32.655C2.39448 32.8888 2.4106 33.1186 2.44688 33.3443C0.632856 33.3443 0.0805855 32.5784 0.0120555 31.885C-0.14516 30.2484 1.68096 30.7966 2.78147 30.7966V30.7926Z" fill="#0E1235"/>
<path fill-rule="evenodd" clip-rule="evenodd" d="M31.5802 30.7926C31.8261 31.3529 31.9672 31.9818 31.9672 32.655C31.9672 32.8888 31.9511 33.1186 31.9148 33.3443C33.7288 33.3443 34.2811 32.5784 34.3496 31.885C34.5068 30.2484 32.6807 30.7966 31.5802 30.7966V30.7926Z" fill="#0E1235"/>
<path fill-rule="evenodd" clip-rule="evenodd" d="M16.036 45.0509C16.9188 45.2323 17.9226 45.0509 18.7571 44.7485C19.4907 44.4825 20.2284 44.0834 20.825 43.5795C21.204 43.261 21.6797 42.7571 21.7885 42.2532C22.0142 41.2454 23.2841 41.5316 23.0624 42.5354C22.6995 44.1801 20.6719 45.4419 19.2005 45.97C18.1282 46.357 16.8987 46.5585 15.77 46.3247C14.7581 46.1151 15.0202 44.8412 16.032 45.0468L16.036 45.0509Z" fill="#0E1235"/>
<path d="M34.6681 23.0528C35.2446 22.0288 42.4322 7.88346 29.2422 1.97779C29.1575 1.97779 11.1704 -4.53256 12.6257 10.3707L12.541 10.4553C12.541 10.4553 -1.01986 12.6846 2.33408 26.8582H5.71623C5.71623 26.8582 8.0785 23.6212 9.8885 23.1777C11.6985 22.7383 10.2191 24.6612 10.2191 24.6612C10.2191 24.6612 13.8955 24.6612 17.9589 21.0936C22.0223 17.522 17.4066 23.8912 16.6407 24.3306C15.8748 24.77 22.4053 25.0966 25.4811 18.8402C25.6423 18.8926 27.8393 19.4449 27.2387 26.0318C27.2911 26.1406 30.2217 26.6123 30.4233 26.0318C30.5321 25.7093 30.8466 25.3586 30.8466 25.3586C30.8466 25.3586 30.9998 25.8947 31.6649 26.6083C32.584 27.5878 36.716 28.003 37.6068 25.7174C37.4254 25.8182 34.1118 24.0444 34.6762 23.0447L34.6681 23.0528ZM29.8307 19.727C29.8307 19.727 26.3962 12.7128 23.0382 11.1447C23.2478 11.1447 32.2736 8.91141 29.8307 19.727Z" fill="#0E1235"/>
</g>
<path d="M49.2125 39.5322C47.7774 39.5322 46.5681 39.2137 45.5885 38.5808C44.6089 37.9318 43.9196 37.053 43.5165 35.9484L45.9594 34.5174C46.5237 35.9968 47.6363 36.7345 49.2932 36.7345C50.0954 36.7345 50.6799 36.5894 51.0548 36.2992C51.4256 36.0089 51.6151 35.6421 51.6151 35.2027C51.6151 34.6907 51.3853 34.2997 50.9298 34.0215C50.4743 33.7313 49.66 33.4209 48.4869 33.0903C47.8379 32.8968 47.2856 32.7034 46.8301 32.5099C46.3867 32.3164 45.9392 32.0624 45.4837 31.7439C45.0403 31.4134 44.7016 30.9982 44.4678 30.5023C44.234 30.0065 44.1171 29.426 44.1171 28.7609C44.1171 27.4507 44.5807 26.4067 45.5038 25.6327C46.4431 24.8466 47.5678 24.4515 48.882 24.4515C50.055 24.4515 51.083 24.7418 51.9699 25.3223C52.8688 25.8866 53.5662 26.6808 54.062 27.7047L51.6595 29.0914C51.079 27.8498 50.1558 27.229 48.882 27.229C48.2894 27.229 47.8177 27.3661 47.4751 27.6442C47.1445 27.9063 46.9793 28.2529 46.9793 28.6802C46.9793 29.1358 47.1647 29.5107 47.5396 29.7969C47.9266 30.075 48.6562 30.3774 49.7366 30.7079C50.18 30.845 50.5106 30.9579 50.7323 31.0385C50.9661 31.107 51.2765 31.2239 51.6635 31.3892C52.0626 31.5424 52.3689 31.6875 52.5745 31.8246C52.7962 31.9616 53.0421 32.1511 53.3203 32.3849C53.5984 32.6187 53.804 32.8606 53.9411 33.1105C54.0943 33.3604 54.2193 33.6628 54.316 34.0215C54.4248 34.3682 54.4813 34.7472 54.4813 35.1624C54.4813 36.5007 53.9895 37.5649 53.0099 38.351C52.0424 39.1371 50.7807 39.5322 49.2206 39.5322H49.2125Z" fill="#0E1235"/>
<path d="M56.2147 39.2419V28.8858H58.8874V39.2419H56.2147Z" fill="#0E1235"/>
<path d="M67.256 31.4537H64.9139V35.763C64.9139 36.1218 65.0026 36.3838 65.184 36.5491C65.3654 36.7144 65.6274 36.8111 65.9701 36.8393C66.3168 36.8514 66.7441 36.8474 67.256 36.8192V39.2419C65.4178 39.4475 64.1198 39.2782 63.3619 38.7259C62.6162 38.1737 62.2453 37.186 62.2453 35.763V31.4537H60.4434V28.8858H62.2453V26.7937L64.918 25.9874V28.8858H67.2601V31.4537H67.256Z" fill="#0E1235"/>
<path d="M77.7613 28.8858H80.434V39.2419H77.7613V38.0205C76.9591 39.0283 75.8344 39.5322 74.3832 39.5322C72.932 39.5322 71.8153 39.0081 70.8196 37.956C69.8401 36.8917 69.3483 35.5937 69.3483 34.0619C69.3483 32.53 69.8401 31.236 70.8196 30.1879C71.8153 29.1237 73.0005 28.5916 74.3832 28.5916C75.8344 28.5916 76.9591 29.0954 77.7613 30.1032V28.8818V28.8858ZM72.8312 36.1782C73.3714 36.7184 74.0526 36.9845 74.8831 36.9845C75.7135 36.9845 76.3948 36.7144 76.9349 36.1782C77.4872 35.626 77.7654 34.9205 77.7654 34.0659C77.7654 33.2113 77.4872 32.5139 76.9349 31.9737C76.3948 31.4214 75.7135 31.1433 74.8831 31.1433C74.0526 31.1433 73.3714 31.4214 72.8312 31.9737C72.291 32.5139 72.025 33.2113 72.025 34.0659C72.025 34.9205 72.2951 35.626 72.8312 36.1782Z" fill="#0E1235"/>
<path d="M85.5254 30.6676C85.7753 30.0065 86.1825 29.5066 86.7468 29.1761C87.3273 28.8455 87.9683 28.6802 88.6737 28.6802V31.6633C87.8594 31.5666 87.1258 31.7318 86.4768 32.1591C85.8398 32.5864 85.5254 33.3 85.5254 34.2916V39.2419H82.8527V28.8858H85.5254V30.6676Z" fill="#0E1235"/>
<path d="M97.7278 28.8858H100.4V39.2419H97.7278V38.0205C96.9256 39.0283 95.8009 39.5322 94.3496 39.5322C92.8984 39.5322 91.7818 39.0081 90.7861 37.956C89.8065 36.8917 89.3147 35.5937 89.3147 34.0619C89.3147 32.53 89.8065 31.236 90.7861 30.1879C91.7818 29.1237 92.9669 28.5916 94.3496 28.5916C95.8009 28.5916 96.9256 29.0954 97.7278 30.1032V28.8818V28.8858ZM92.7976 36.1782C93.3338 36.7184 94.0191 36.9845 94.8495 36.9845C95.6799 36.9845 96.3612 36.7144 96.9014 36.1782C97.4536 35.626 97.7318 34.9205 97.7318 34.0659C97.7318 33.2113 97.4536 32.5139 96.9014 31.9737C96.3612 31.4214 95.6799 31.1433 94.8495 31.1433C94.0191 31.1433 93.3378 31.4214 92.7976 31.9737C92.2575 32.5139 91.9914 33.2113 91.9914 34.0659C91.9914 34.9205 92.2615 35.626 92.7976 36.1782Z" fill="#0E1235"/>
<path d="M57.6539 27.6442C58.6068 27.6442 59.3792 26.8718 59.3792 25.9189C59.3792 24.966 58.6068 24.1935 57.6539 24.1935C56.701 24.1935 55.9285 24.966 55.9285 25.9189C55.9285 26.8718 56.701 27.6442 57.6539 27.6442Z" fill="#ED793D"/>
<path d="M103.275 39.0162C104.228 39.0162 105 38.2437 105 37.2908C105 36.338 104.228 35.5655 103.275 35.5655C102.322 35.5655 101.549 36.338 101.549 37.2908C101.549 38.2437 102.322 39.0162 103.275 39.0162Z" fill="#0E1235"/>
</g>
<defs>
<clipPath id="clip0_163_32451">
<rect width="105" height="45.8667" fill="white" transform="translate(0 0.562805)"/>
</clipPath>
</defs>
</svg>
